# xmcd
#
# Track frame offsets: 
#        150
#        25458
#        51702
#        72337
#        93854
#        119134
#        142181
#        162012
#        179264
#        200046
#        218543
#        240059
#        255850
#        275118
#        298446
#        320601
#
# Disc length: 4509 seconds
#
# Revision: 0
# Processed by: cddbd v1.5.2PL0 Copyright (c) Steve Scherf et al.
# Submitted via: ExactAudioCopyFreeDBPlugin 1.0
#
DISCID=fe119b10
DTITLE=群星 - 试机26号
DYEAR=2010
DGENRE=Acid
TTITLE0=乌兰巴托的夜晚
TTITLE1=蒙古人
TTITLE2=呼伦贝尔大草原
TTITLE3=我的九寨
TTITLE4=牧羊姑娘
TTITLE5=敖包相会
TTITLE6=天路
TTITLE7=美丽的草原我的的家
TTITLE8=高原红
TTITLE9=梦中的唐古拉
TTITLE10=天边
TTITLE11=陪你一起看草原
TTITLE12=青藏高原
TTITLE13=卓玛
TTITLE14=在那东山顶上
TTITLE15=我和草原有个约定
EXTD=
EXTT0=
EXTT1=
EXTT2=
EXTT3=
EXTT4=
EXTT5=
EXTT6=
EXTT7=
EXTT8=
EXTT9=
EXTT10=
EXTT11=
EXTT12=
EXTT13=
EXTT14=
EXTT15=
PLAYORDER=
